<svg width="177" height="30" viewBox="0 0 177 30" fill="none" xmlns="http://www.w3.org/2000/svg">
<path d="M9.7 3.728C12.364 3.728 14.692 4.256 16.684 5.312C18.676 6.368 20.212 7.856 21.292 9.776C22.396 11.672 22.948 13.868 22.948 16.364C22.948 18.836 22.396 21.032 21.292 22.952C20.212 24.872 18.664 26.36 16.648 27.416C14.656 28.472 12.34 29 9.7 29H0.232V3.728H9.7ZM9.304 23.672C11.632 23.672 13.444 23.036 14.74 21.764C16.036 20.492 16.684 18.692 16.684 16.364C16.684 14.036 16.036 12.224 14.74 10.928C13.444 9.632 11.632 8.984 9.304 8.984H6.388V23.672H9.304ZM45.3242 18.632C45.3242 19.208 45.2883 19.808 45.2163 20.432H31.2843C31.3803 21.68 31.7763 22.64 32.4723 23.312C33.1923 23.96 34.0683 24.284 35.1003 24.284C36.6363 24.284 37.7043 23.636 38.3043 22.34H44.8563C44.5203 23.66 43.9083 24.848 43.0203 25.904C42.1563 26.96 41.0643 27.788 39.7443 28.388C38.4243 28.988 36.9483 29.288 35.3163 29.288C33.3483 29.288 31.5963 28.868 30.0603 28.028C28.5243 27.188 27.3243 25.988 26.4603 24.428C25.5963 22.868 25.1643 21.044 25.1643 18.956C25.1643 16.868 25.5843 15.044 26.4243 13.484C27.2883 11.924 28.4883 10.724 30.0243 9.884C31.5603 9.044 33.3243 8.624 35.3163 8.624C37.2603 8.624 38.9883 9.032 40.5003 9.848C42.0123 10.664 43.1883 11.828 44.0283 13.34C44.8923 14.852 45.3242 16.616 45.3242 18.632ZM39.0243 17.012C39.0243 15.956 38.6643 15.116 37.9443 14.492C37.2243 13.868 36.3243 13.556 35.2443 13.556C34.2123 13.556 33.3363 13.856 32.6163 14.456C31.9203 15.056 31.4883 15.908 31.3203 17.012H39.0243ZM54.7278 2.36V29H48.5718V2.36H54.7278ZM62.285 6.824C61.205 6.824 60.317 6.512 59.621 5.888C58.949 5.24 58.613 4.448 58.613 3.512C58.613 2.552 58.949 1.76 59.621 1.136C60.317 0.487998 61.205 0.163998 62.285 0.163998C63.341 0.163998 64.205 0.487998 64.877 1.136C65.573 1.76 65.921 2.552 65.921 3.512C65.921 4.448 65.573 5.24 64.877 5.888C64.205 6.512 63.341 6.824 62.285 6.824ZM65.345 8.912V29H59.189V8.912H65.345ZM78.8422 23.24L83.1982 8.912H89.7502L82.6222 29H75.0262L67.8982 8.912H74.4862L78.8422 23.24ZM111.277 18.632C111.277 19.208 111.241 19.808 111.169 20.432H97.2374C97.3334 21.68 97.7294 22.64 98.4254 23.312C99.1454 23.96 100.021 24.284 101.053 24.284C102.589 24.284 103.657 23.636 104.257 22.34H110.809C110.473 23.66 109.861 24.848 108.973 25.904C108.109 26.96 107.017 27.788 105.697 28.388C104.377 28.988 102.901 29.288 101.269 29.288C99.3014 29.288 97.5494 28.868 96.0134 28.028C94.4774 27.188 93.2774 25.988 92.4134 24.428C91.5494 22.868 91.1174 21.044 91.1174 18.956C91.1174 16.868 91.5374 15.044 92.3774 13.484C93.2414 11.924 94.4414 10.724 95.9774 9.884C97.5134 9.044 99.2774 8.624 101.269 8.624C103.213 8.624 104.941 9.032 106.453 9.848C107.965 10.664 109.141 11.828 109.981 13.34C110.845 14.852 111.277 16.616 111.277 18.632ZM104.977 17.012C104.977 15.956 104.617 15.116 103.897 14.492C103.177 13.868 102.277 13.556 101.197 13.556C100.165 13.556 99.2894 13.856 98.5694 14.456C97.8734 15.056 97.4414 15.908 97.2734 17.012H104.977ZM120.681 12.26C121.401 11.156 122.301 10.292 123.381 9.668C124.461 9.02 125.661 8.696 126.981 8.696V15.212H125.289C123.753 15.212 122.601 15.548 121.833 16.22C121.065 16.868 120.681 18.02 120.681 19.676V29H114.525V8.912H120.681V12.26ZM132.803 29.288C131.723 29.288 130.835 28.976 130.139 28.352C129.467 27.704 129.131 26.912 129.131 25.976C129.131 25.016 129.467 24.212 130.139 23.564C130.835 22.916 131.723 22.592 132.803 22.592C133.859 22.592 134.723 22.916 135.395 23.564C136.091 24.212 136.439 25.016 136.439 25.976C136.439 26.912 136.091 27.704 135.395 28.352C134.723 28.976 133.859 29.288 132.803 29.288ZM138.86 18.92C138.86 16.856 139.244 15.044 140.012 13.484C140.804 11.924 141.872 10.724 143.216 9.884C144.56 9.044 146.06 8.624 147.716 8.624C149.132 8.624 150.368 8.912 151.424 9.488C152.504 10.064 153.332 10.82 153.908 11.756V8.912H160.064V29H153.908V26.156C153.308 27.092 152.468 27.848 151.388 28.424C150.332 29 149.096 29.288 147.68 29.288C146.048 29.288 144.56 28.868 143.216 28.028C141.872 27.164 140.804 25.952 140.012 24.392C139.244 22.808 138.86 20.984 138.86 18.92ZM153.908 18.956C153.908 17.42 153.476 16.208 152.612 15.32C151.772 14.432 150.74 13.988 149.516 13.988C148.292 13.988 147.248 14.432 146.384 15.32C145.544 16.184 145.124 17.384 145.124 18.92C145.124 20.456 145.544 21.68 146.384 22.592C147.248 23.48 148.292 23.924 149.516 23.924C150.74 23.924 151.772 23.48 152.612 22.592C153.476 21.704 153.908 20.492 153.908 18.956ZM170.673 12.26C171.393 11.156 172.293 10.292 173.373 9.668C174.453 9.02 175.653 8.696 176.973 8.696V15.212H175.281C173.745 15.212 172.593 15.548 171.825 16.22C171.057 16.868 170.673 18.02 170.673 19.676V29H164.517V8.912H170.673V12.26Z" fill="white"/>
</svg>
